<?xml version="1.0" standalone="no"?>
<!DOCTYPE svg PUBLIC "-//W3C//DTD SVG 20010904//EN"
 "http://www.w3.org/TR/2001/REC-SVG-20010904/DTD/svg10.dtd">
<svg version="1.0" xmlns="http://www.w3.org/2000/svg"
 width="327.000000pt" height="327.000000pt" viewBox="0 0 327.000000 327.000000"
 preserveAspectRatio="xMidYMid meet">
<metadata>
Created by potrace 1.14, written by Peter Selinger 2001-2017
</metadata>
<g transform="translate(0.000000,327.000000) scale(0.100000,-0.100000)"
fill="#000000" stroke="none">
<path d="M1499 3266 c-2 -2 -33 -7 -69 -10 -205 -21 -456 -110 -650 -230 -136
-84 -329 -251 -403 -350 -12 -15 -33 -42 -47 -60 -80 -99 -178 -277 -230 -421
-112 -307 -127 -677 -41 -990 146 -530 547 -951 1072 -1124 53 -18 110 -34
125 -37 16 -3 37 -7 46 -10 110 -33 522 -40 608 -10 8 3 29 7 45 10 100 15
250 64 374 122 70 33 227 123 261 150 168 135 288 255 363 364 97 141 207 341
207 378 0 7 7 26 15 42 18 35 64 209 71 270 3 24 8 49 11 54 10 16 12 348 2
414 -29 200 -68 336 -146 502 -131 279 -362 538 -623 698 -153 94 -363 176
-530 208 -14 2 -50 9 -80 15 -51 10 -373 22 -381 15z"/>
</g>
</svg>
